<svg width="62" height="62" viewBox="0 0 62 62" fill="none" xmlns="http://www.w3.org/2000/svg">
<rect width="62" height="62" rx="30" fill="#030303"/>
<path fill-rule="evenodd" clip-rule="evenodd" d="M39.9964 42.8789C39.7185 42.8801 39.4445 42.8135 39.1981 42.685L33.4961 39.7086C33.1641 39.5342 32.7675 39.5342 32.4355 39.7086L31.1354 40.3928C30.5805 40.668 29.9074 40.4499 29.6193 39.9016C29.3312 39.3533 29.5335 38.6752 30.0749 38.3743L31.3749 37.6901C32.371 37.1669 33.5606 37.1669 34.5566 37.6901L39.1867 40.1305L38.2972 34.9759C38.1081 33.8687 38.4747 32.7391 39.2779 31.9539L43.0298 28.3046L37.8524 27.5519C36.7378 27.3907 35.774 26.6913 35.2751 25.6817L32.9943 20.9946L30.7135 25.6817C30.2146 26.6913 29.2507 27.3907 28.1362 27.5519L22.9588 28.3046L26.7107 31.9539C27.5175 32.7416 27.8844 33.8763 27.6914 34.9873L26.6081 41.2824C26.5388 41.6898 26.2574 42.0293 25.87 42.173C25.4825 42.3168 25.0478 42.2429 24.7296 41.9792C24.4113 41.7155 24.258 41.302 24.3273 40.8946L25.4106 34.5996C25.4753 34.2274 25.3515 33.8473 25.0799 33.5846L20.5183 29.1257C20.0511 28.6715 19.8825 27.9914 20.0834 27.3715C20.2844 26.7517 20.82 26.2999 21.4648 26.2063L27.7827 25.2825C28.1536 25.2268 28.4734 24.9923 28.638 24.6553L31.4662 18.9533C31.7544 18.3695 32.349 18 33 18C33.651 18 34.2456 18.3695 34.5338 18.9533L37.362 24.6553C37.5266 24.9923 37.8464 25.2268 38.2173 25.2825L44.5352 26.2063C45.18 26.2999 45.7156 26.7517 45.9166 27.3715C46.1175 27.9914 45.9489 28.6715 45.4817 29.1257L40.9201 33.5846C40.6522 33.8448 40.5286 34.2197 40.5894 34.5882L41.6727 40.8832C41.7605 41.3816 41.623 41.8933 41.2973 42.2807C40.9716 42.668 40.491 42.8912 39.985 42.8903L39.9964 42.8789Z" fill="white"/>
</svg>
