<svg width="186" height="39" viewBox="0 0 186 39" fill="none" xmlns="http://www.w3.org/2000/svg">
<path d="M60.538 29.0736C59.2956 29.0736 58.2339 28.6338 57.354 27.752C56.4729 26.8712 56.0334 25.8087 56.0334 24.5653V14.5094C56.0334 13.2814 56.4729 12.2277 57.354 11.3459C58.2339 10.4486 59.2956 10 60.538 10C61.7649 10 62.8178 10.4486 63.6989 11.3459C64.5799 12.2277 65.0194 13.2814 65.0194 14.5094C65.0194 14.6505 64.9676 14.7651 64.8663 14.8511C64.7639 14.9381 64.6581 14.9811 64.548 14.9811H62.5435C62.4026 14.9811 62.288 14.9304 62.2021 14.8279C62.1151 14.7254 62.0722 14.6196 62.0722 14.5094C62.0722 14.0839 61.9224 13.7223 61.6239 13.4236C61.3089 13.1095 60.9477 12.9519 60.5391 12.9519C60.1151 12.9519 59.745 13.1095 59.43 13.4236C59.1315 13.7223 58.9818 14.085 58.9818 14.5094V24.5653C58.9818 25.0062 59.1315 25.3755 59.43 25.6753C59.7285 25.974 60.0985 26.1239 60.5391 26.1239C60.9477 26.1239 61.3089 25.974 61.6239 25.6753C61.9224 25.3766 62.0722 25.0062 62.0722 24.5653C62.0722 24.4231 62.1228 24.3096 62.2252 24.2236C62.3277 24.1376 62.4334 24.0935 62.5435 24.0935H64.548C64.6901 24.0935 64.8035 24.1443 64.8894 24.2468C64.9753 24.3493 65.0194 24.4551 65.0194 24.5653C65.0194 25.8087 64.5788 26.8712 63.6989 27.752C63.2748 28.1929 62.7946 28.5235 62.2605 28.744C61.7252 28.9633 61.1514 29.0736 60.538 29.0736Z" fill="url(#paint0_linear_0_404)"/>
<path d="M71.2938 29.0736C70.0514 29.0736 68.9897 28.6338 68.1098 27.752C67.2287 26.8712 66.7892 25.8087 66.7892 24.5653V14.5094C66.7892 13.2814 67.2287 12.2277 68.1098 11.3459C68.9897 10.4486 70.0514 10 71.2938 10C72.5207 10 73.5736 10.4486 74.4547 11.3459C75.3357 12.2277 75.7752 13.2814 75.7752 14.5094V24.5653C75.7752 25.8087 75.3346 26.8712 74.4547 27.752C74.0306 28.1929 73.5504 28.5235 73.0163 28.744C72.481 28.9633 71.9072 29.0736 71.2938 29.0736ZM71.2938 26.1228C71.7024 26.1228 72.0636 25.9729 72.3786 25.6742C72.6771 25.3755 72.8269 25.0051 72.8269 24.5642V14.5083C72.8269 14.0828 72.6771 13.7212 72.3786 13.4225C72.0636 13.1084 71.7024 12.9508 71.2938 12.9508C70.8698 12.9508 70.4997 13.1084 70.1847 13.4225C69.8862 13.7212 69.7365 14.0839 69.7365 14.5083V24.5642C69.7365 25.0051 69.8862 25.3744 70.1847 25.6742C70.4832 25.974 70.8532 26.1228 71.2938 26.1228Z" fill="url(#paint1_linear_0_404)"/>
<path d="M77.5439 28.6018V10.4729C77.5439 10.3307 77.5945 10.2171 77.697 10.1301C77.7994 10.0441 77.9051 10 78.0153 10H82.544C83.7709 10 84.8238 10.4486 85.7049 11.3459C86.5849 12.2277 87.0254 13.2814 87.0254 14.5094V24.5653C87.0254 25.8086 86.5849 26.8712 85.7049 27.7519C85.2798 28.1928 84.8007 28.5235 84.2665 28.7439C83.7313 28.9644 83.1575 29.0746 82.5451 29.0746H78.0164C77.8743 29.0746 77.7609 29.0239 77.6749 28.9214C77.5868 28.8178 77.5439 28.712 77.5439 28.6018ZM82.544 26.1228C82.9526 26.1228 83.3139 25.9729 83.6288 25.6742C83.9273 25.3754 84.0771 25.0051 84.0771 24.5642V14.5083C84.0771 14.0828 83.9273 13.7212 83.6288 13.4225C83.3139 13.1084 82.9526 12.9508 82.544 12.9508H80.4922V26.1228H82.544Z" fill="url(#paint2_linear_0_404)"/>
<path d="M88.7943 28.6018V10.4729C88.7943 10.3307 88.8449 10.2171 88.9473 10.1301C89.0498 10.0441 89.1555 10 89.2656 10H97.3088C97.4509 10 97.5643 10.0507 97.6502 10.1532C97.7361 10.2557 97.7802 10.3615 97.7802 10.4718V12.4779C97.7802 12.6201 97.7284 12.7336 97.6271 12.8207C97.5247 12.9078 97.4189 12.9508 97.3088 12.9508H91.7426V18.0498H95.7988C95.9398 18.0498 96.0544 18.1005 96.1403 18.203C96.2262 18.3055 96.2702 18.4114 96.2702 18.5216V20.552C96.2702 20.6941 96.2185 20.8077 96.1171 20.8936C96.0147 20.9807 95.909 21.0237 95.7988 21.0237H91.7426V26.1228H97.3088C97.4509 26.1228 97.5643 26.1746 97.6502 26.276C97.7361 26.3785 97.7802 26.4843 97.7802 26.5945V28.6007C97.7802 28.7429 97.7284 28.8564 97.6271 28.9424C97.5247 29.0294 97.4189 29.0724 97.3088 29.0724H89.2656C89.1236 29.0724 89.0101 29.0217 88.9242 28.9192C88.8372 28.8178 88.7943 28.712 88.7943 28.6018Z" fill="url(#paint3_linear_0_404)"/>
<path d="M108.3 28.6018V10.4729C108.3 10.3307 108.351 10.2171 108.453 10.1301C108.556 10.0441 108.661 10 108.772 10H112.805C114.032 10 115.084 10.4486 115.966 11.3459C116.847 12.2277 117.286 13.2814 117.286 14.5094V18.5227C117.286 19.7661 116.846 20.8286 115.966 21.7093C115.084 22.5912 114.032 23.031 112.805 23.031H111.248V28.6018C111.248 28.744 111.197 28.8575 111.095 28.9435C110.993 29.0306 110.887 29.0736 110.777 29.0736H108.773C108.631 29.0736 108.517 29.0229 108.431 28.9203C108.343 28.8178 108.3 28.712 108.3 28.6018ZM112.805 20.056C113.213 20.056 113.575 19.9149 113.89 19.6316C114.188 19.3174 114.338 18.9471 114.338 18.5216V14.5083C114.338 14.0828 114.188 13.7212 113.89 13.4225C113.575 13.1084 113.213 12.9508 112.805 12.9508H111.248V20.056H112.805Z" fill="url(#paint4_linear_0_404)"/>
<path d="M119.102 28.484L123.631 10.355C123.678 10.1192 123.827 10.0012 124.079 10.0012H126.084C126.335 10.0012 126.485 10.1192 126.532 10.355L131.061 28.484C131.076 28.5633 131.084 28.6339 131.084 28.6967C131.084 28.9491 130.926 29.0748 130.613 29.0748H128.608C128.357 29.0748 128.207 28.9568 128.16 28.7209L127.216 25.0383H122.947L122.003 28.7209C121.956 28.9568 121.806 29.0748 121.555 29.0748H119.551C119.488 29.0748 119.425 29.0715 119.362 29.0626C119.299 29.0549 119.228 29.0031 119.15 28.9094C119.102 28.8466 119.079 28.7672 119.079 28.6735C119.079 28.6096 119.087 28.5468 119.102 28.484ZM126.485 22.0864L125.094 16.4451L123.678 22.0864H126.485Z" fill="url(#paint5_linear_0_404)"/>
<path d="M140.189 22.0158L141.792 28.4838C141.808 28.5632 141.815 28.6337 141.815 28.6966C141.815 28.949 141.658 29.0746 141.344 29.0746H139.34C139.089 29.0746 138.939 28.9567 138.891 28.7208L137.476 23.032H135.778V28.6029C135.778 28.745 135.726 28.8586 135.625 28.9446C135.522 29.0316 135.417 29.0746 135.306 29.0746H133.302C133.16 29.0746 133.046 29.0239 132.961 28.9214C132.874 28.8189 132.831 28.7131 132.831 28.6029V10.4729C132.831 10.3307 132.881 10.2171 132.984 10.1301C133.086 10.0441 133.192 10 133.302 10H137.335C138.562 10 139.615 10.4486 140.496 11.3459C141.377 12.2277 141.817 13.2814 141.817 14.5094V18.5227C141.817 19.766 141.376 20.8286 140.496 21.7093C140.4 21.803 140.298 21.9055 140.189 22.0158ZM137.334 20.0559C137.743 20.0559 138.104 19.9148 138.419 19.6316C138.717 19.3174 138.867 18.9471 138.867 18.5216V14.5083C138.867 14.0828 138.717 13.7212 138.419 13.4225C138.104 13.1084 137.743 12.9508 137.334 12.9508H135.778V20.0559H137.334Z" fill="url(#paint6_linear_0_404)"/>
<path d="M146.604 28.6018V12.9508H144.057C143.915 12.9508 143.801 12.9001 143.715 12.7975C143.628 12.695 143.585 12.5892 143.585 12.479V10.4729C143.585 10.3307 143.636 10.2171 143.738 10.1301C143.841 10.0441 143.947 10 144.057 10H152.1C152.242 10 152.355 10.0507 152.441 10.1532C152.527 10.2557 152.571 10.3615 152.571 10.4718V12.4779C152.571 12.6201 152.519 12.7336 152.418 12.8207C152.316 12.9078 152.21 12.9508 152.1 12.9508H149.552V28.6018C149.552 28.744 149.502 28.8575 149.399 28.9435C149.297 29.0306 149.191 29.0736 149.081 29.0736H147.077C146.935 29.0736 146.821 29.0229 146.734 28.9203C146.647 28.8178 146.604 28.712 146.604 28.6018Z" fill="url(#paint7_linear_0_404)"/>
<path d="M157.265 10.3075L160.874 19.9622V10.4729C160.874 10.3307 160.925 10.2171 161.027 10.1301C161.13 10.0441 161.236 10 161.346 10H163.35C163.491 10 163.606 10.0507 163.692 10.1532C163.777 10.2557 163.821 10.3615 163.821 10.4718V28.6007C163.821 28.7429 163.77 28.8564 163.668 28.9424C163.566 29.0294 163.46 29.0724 163.35 29.0724H161.346C161.125 29.0724 160.976 28.9699 160.897 28.766L157.289 19.1113V28.6007C157.289 28.7429 157.238 28.8564 157.136 28.9424C157.034 29.0294 156.928 29.0724 156.818 29.0724H154.814C154.671 29.0724 154.558 29.0217 154.472 28.9192C154.385 28.8167 154.342 28.7109 154.342 28.6007V10.4729C154.342 10.3307 154.393 10.2171 154.495 10.1301C154.598 10.0441 154.703 10 154.814 10H156.818C157.036 10 157.186 10.1025 157.265 10.3075Z" fill="url(#paint8_linear_0_404)"/>
<path d="M165.59 28.6018V10.4729C165.59 10.3307 165.641 10.2171 165.743 10.1301C165.846 10.0441 165.952 10 166.062 10H174.105C174.247 10 174.36 10.0507 174.446 10.1532C174.532 10.2557 174.576 10.3615 174.576 10.4718V12.4779C174.576 12.6201 174.524 12.7336 174.423 12.8207C174.321 12.9078 174.215 12.9508 174.105 12.9508H168.539V18.0498H172.595C172.736 18.0498 172.85 18.1005 172.936 18.203C173.022 18.3055 173.066 18.4114 173.066 18.5216V20.552C173.066 20.6941 173.015 20.8077 172.913 20.8936C172.811 20.9807 172.705 21.0237 172.595 21.0237H168.539V26.1228H174.105C174.247 26.1228 174.36 26.1746 174.446 26.276C174.532 26.3785 174.576 26.4843 174.576 26.5945V28.6007C174.576 28.7429 174.524 28.8564 174.423 28.9424C174.321 29.0294 174.215 29.0724 174.105 29.0724H166.062C165.92 29.0724 165.806 29.0217 165.72 28.9192C165.633 28.8178 165.59 28.712 165.59 28.6018Z" fill="url(#paint9_linear_0_404)"/>
<path d="M183.704 22.0158L185.308 28.4838C185.323 28.5632 185.331 28.6337 185.331 28.6966C185.331 28.949 185.173 29.0746 184.859 29.0746H182.855C182.604 29.0746 182.454 28.9567 182.407 28.7208L180.992 23.032H179.293V28.6029C179.293 28.745 179.242 28.8586 179.14 28.9446C179.038 29.0316 178.932 29.0746 178.822 29.0746H176.817C176.675 29.0746 176.562 29.0239 176.476 28.9214C176.389 28.8189 176.346 28.7131 176.346 28.6029V10.4729C176.346 10.3307 176.397 10.2171 176.499 10.1301C176.602 10.0441 176.707 10 176.817 10H180.851C182.077 10 183.13 10.4486 184.011 11.3459C184.893 12.2277 185.332 13.2814 185.332 14.5094V18.5227C185.332 19.766 184.891 20.8286 184.011 21.7093C183.917 21.803 183.814 21.9055 183.704 22.0158ZM180.851 20.0559C181.259 20.0559 181.62 19.9148 181.935 19.6316C182.234 19.3174 182.384 18.9471 182.384 18.5216V14.5083C182.384 14.0828 182.234 13.7212 181.935 13.4225C181.62 13.1084 181.259 12.9508 180.851 12.9508H179.294V20.0559H180.851Z" fill="url(#paint10_linear_0_404)"/>
<path d="M38.719 16.3955H36.1729H33.4408C33.4408 16.3955 36.4368 17.05 36.4542 19.8296C36.278 29.0454 28.7344 36.4893 19.4831 36.4893C13.2989 36.4893 7.8779 33.1625 4.91114 28.2034C4.61237 27.705 4.33798 27.1899 4.09145 26.6588H19.3612C19.9204 28.883 21.9366 30.5355 24.3302 30.5355C27.1584 30.5355 29.4573 28.2327 29.4573 25.4042C29.4573 22.5737 27.1577 20.2729 24.3302 20.2729C21.9366 20.2729 19.9204 21.9234 19.3612 24.1496H0.561279C0.76951 25.0104 1.03972 25.8489 1.36008 26.6595C1.56831 27.1865 1.80022 27.7022 2.05093 28.2041C5.25099 34.6005 11.8635 38.9999 19.4831 38.9999C30.2254 38.9999 38.9662 30.2526 38.9662 19.5006C38.9662 18.444 38.8813 17.4048 38.719 16.3955ZM24.3309 22.7821C25.776 22.7821 26.9501 23.958 26.9501 25.4042C26.9501 26.8484 25.7753 28.0263 24.3309 28.0263C22.8879 28.0263 21.713 26.8484 21.713 25.4042C21.713 23.9573 22.8879 22.7821 24.3309 22.7821Z" fill="url(#paint11_linear_0_404)"/>
<path d="M38.719 16.3955H36.1729H33.4408C33.4408 16.3955 36.4368 17.05 36.4542 19.8296C36.278 29.0454 28.7344 36.4893 19.4831 36.4893C13.2989 36.4893 7.8779 33.1625 4.91114 28.2034C4.61237 27.705 4.33798 27.1899 4.09145 26.6588H19.3612C19.9204 28.883 21.9366 30.5355 24.3302 30.5355C27.1584 30.5355 29.4573 28.2327 29.4573 25.4042C29.4573 22.5737 27.1577 20.2729 24.3302 20.2729C21.9366 20.2729 19.9204 21.9234 19.3612 24.1496H0.561279C0.76951 25.0104 1.03972 25.8489 1.36008 26.6595C1.56831 27.1865 1.80022 27.7022 2.05093 28.2041C5.25099 34.6005 11.8635 38.9999 19.4831 38.9999C30.2254 38.9999 38.9662 30.2526 38.9662 19.5006C38.9662 18.444 38.8813 17.4048 38.719 16.3955ZM24.3309 22.7821C25.776 22.7821 26.9501 23.958 26.9501 25.4042C26.9501 26.8484 25.7753 28.0263 24.3309 28.0263C22.8879 28.0263 21.713 26.8484 21.713 25.4042C21.713 23.9573 22.8879 22.7821 24.3309 22.7821Z" fill="url(#paint12_linear_0_404)"/>
<path d="M5.52542 22.6044C5.52542 22.6044 2.52871 21.9499 2.512 19.1696C2.68889 9.95455 10.2339 2.51059 19.4831 2.51059C25.6674 2.51059 31.0897 5.83737 34.0551 10.7965C34.3539 11.2949 34.6283 11.81 34.8748 12.3411H19.6064C19.0472 10.117 17.0289 8.46437 14.6353 8.46437C11.8072 8.46437 9.50827 10.7673 9.50827 13.5957C9.50827 16.4262 11.8079 18.727 14.6353 18.727C17.0289 18.727 19.0472 17.0765 19.6064 14.8503H38.405C38.1967 13.9895 37.9265 13.1517 37.6062 12.3404C37.3979 11.8135 37.166 11.2977 36.9153 10.7958C33.7152 4.39947 27.1027 0 19.4831 0C8.74081 0 0 8.74735 0 19.4993C0 20.5552 0.0849628 21.5938 0.247229 22.6037H2.79335H5.52542V22.6044ZM14.6353 16.2178C13.1903 16.2178 12.0154 15.042 12.0154 13.5957C12.0154 12.1494 13.1903 10.9743 14.6353 10.9743C16.0783 10.9743 17.2553 12.1501 17.2553 13.5957C17.2553 15.042 16.0783 16.2178 14.6353 16.2178Z" fill="url(#paint13_linear_0_404)"/>
<defs>
<linearGradient id="paint0_linear_0_404" x1="182.788" y1="3.65717" x2="57.5186" y2="19.9024" gradientUnits="userSpaceOnUse">
<stop stop-color="#0DC3FF"/>
<stop offset="0.2498" stop-color="#09A1F1"/>
<stop offset="0.5769" stop-color="#047AE1"/>
<stop offset="0.8385" stop-color="#0162D8"/>
<stop offset="1" stop-color="#0059D4"/>
</linearGradient>
<linearGradient id="paint1_linear_0_404" x1="182.966" y1="5.0311" x2="57.6967" y2="21.2763" gradientUnits="userSpaceOnUse">
<stop stop-color="#0DC3FF"/>
<stop offset="0.2498" stop-color="#09A1F1"/>
<stop offset="0.5769" stop-color="#047AE1"/>
<stop offset="0.8385" stop-color="#0162D8"/>
<stop offset="1" stop-color="#0059D4"/>
</linearGradient>
<linearGradient id="paint2_linear_0_404" x1="183.117" y1="6.19771" x2="57.848" y2="22.443" gradientUnits="userSpaceOnUse">
<stop stop-color="#0DC3FF"/>
<stop offset="0.2498" stop-color="#09A1F1"/>
<stop offset="0.5769" stop-color="#047AE1"/>
<stop offset="0.8385" stop-color="#0162D8"/>
<stop offset="1" stop-color="#0059D4"/>
</linearGradient>
<linearGradient id="paint3_linear_0_404" x1="183.33" y1="7.84076" x2="58.0611" y2="24.086" gradientUnits="userSpaceOnUse">
<stop stop-color="#0DC3FF"/>
<stop offset="0.2498" stop-color="#09A1F1"/>
<stop offset="0.5769" stop-color="#047AE1"/>
<stop offset="0.8385" stop-color="#0162D8"/>
<stop offset="1" stop-color="#0059D4"/>
</linearGradient>
<linearGradient id="paint4_linear_0_404" x1="183.603" y1="9.94685" x2="58.3341" y2="26.1921" gradientUnits="userSpaceOnUse">
<stop stop-color="#0DC3FF"/>
<stop offset="0.2498" stop-color="#09A1F1"/>
<stop offset="0.5769" stop-color="#047AE1"/>
<stop offset="0.8385" stop-color="#0162D8"/>
<stop offset="1" stop-color="#0059D4"/>
</linearGradient>
<linearGradient id="paint5_linear_0_404" x1="183.895" y1="12.1929" x2="58.6253" y2="28.4382" gradientUnits="userSpaceOnUse">
<stop stop-color="#0DC3FF"/>
<stop offset="0.2498" stop-color="#09A1F1"/>
<stop offset="0.5769" stop-color="#047AE1"/>
<stop offset="0.8385" stop-color="#0162D8"/>
<stop offset="1" stop-color="#0059D4"/>
</linearGradient>
<linearGradient id="paint6_linear_0_404" x1="184.06" y1="13.4685" x2="58.7909" y2="29.7138" gradientUnits="userSpaceOnUse">
<stop stop-color="#0DC3FF"/>
<stop offset="0.2498" stop-color="#09A1F1"/>
<stop offset="0.5769" stop-color="#047AE1"/>
<stop offset="0.8385" stop-color="#0162D8"/>
<stop offset="1" stop-color="#0059D4"/>
</linearGradient>
<linearGradient id="paint7_linear_0_404" x1="184.213" y1="14.6471" x2="58.9437" y2="30.8924" gradientUnits="userSpaceOnUse">
<stop stop-color="#0DC3FF"/>
<stop offset="0.2498" stop-color="#09A1F1"/>
<stop offset="0.5769" stop-color="#047AE1"/>
<stop offset="0.8385" stop-color="#0162D8"/>
<stop offset="1" stop-color="#0059D4"/>
</linearGradient>
<linearGradient id="paint8_linear_0_404" x1="184.42" y1="16.2455" x2="59.151" y2="32.4908" gradientUnits="userSpaceOnUse">
<stop stop-color="#0DC3FF"/>
<stop offset="0.2498" stop-color="#09A1F1"/>
<stop offset="0.5769" stop-color="#047AE1"/>
<stop offset="0.8385" stop-color="#0162D8"/>
<stop offset="1" stop-color="#0059D4"/>
</linearGradient>
<linearGradient id="paint9_linear_0_404" x1="184.603" y1="17.6511" x2="59.3333" y2="33.8964" gradientUnits="userSpaceOnUse">
<stop stop-color="#0DC3FF"/>
<stop offset="0.2498" stop-color="#09A1F1"/>
<stop offset="0.5769" stop-color="#047AE1"/>
<stop offset="0.8385" stop-color="#0162D8"/>
<stop offset="1" stop-color="#0059D4"/>
</linearGradient>
<linearGradient id="paint10_linear_0_404" x1="184.781" y1="19.0275" x2="59.5119" y2="35.2727" gradientUnits="userSpaceOnUse">
<stop stop-color="#0DC3FF"/>
<stop offset="0.2498" stop-color="#09A1F1"/>
<stop offset="0.5769" stop-color="#047AE1"/>
<stop offset="0.8385" stop-color="#0162D8"/>
<stop offset="1" stop-color="#0059D4"/>
</linearGradient>
<linearGradient id="paint11_linear_0_404" x1="7.47805" y1="35.8178" x2="38.6484" y2="12.8264" gradientUnits="userSpaceOnUse">
<stop stop-color="#0059D4"/>
<stop offset="0.2588" stop-color="#0370DD"/>
<stop offset="0.7995" stop-color="#0AABF5"/>
<stop offset="1" stop-color="#0DC3FF"/>
</linearGradient>
<linearGradient id="paint12_linear_0_404" x1="7.47805" y1="35.8178" x2="38.6484" y2="12.8264" gradientUnits="userSpaceOnUse">
<stop stop-color="#0059D4"/>
<stop offset="0.2588" stop-color="#0370DD"/>
<stop offset="0.7995" stop-color="#0AABF5"/>
<stop offset="1" stop-color="#0DC3FF"/>
</linearGradient>
<linearGradient id="paint13_linear_0_404" x1="0.365998" y1="26.1758" x2="31.5363" y2="3.18428" gradientUnits="userSpaceOnUse">
<stop stop-color="#0059D4"/>
<stop offset="0.2588" stop-color="#0370DD"/>
<stop offset="0.7995" stop-color="#0AABF5"/>
<stop offset="1" stop-color="#0DC3FF"/>
</linearGradient>
</defs>
</svg>
