<svg width="42" height="42" viewBox="0 0 42 42" fill="none" xmlns="http://www.w3.org/2000/svg">
<path d="M41.6887 17.6567H38.9468H36.0046C36.0046 17.6567 39.231 18.3616 39.2498 21.355C39.06 31.2797 30.9361 39.2962 20.9732 39.2962C14.3132 39.2962 8.47526 35.7135 5.28029 30.3729C4.95854 29.8362 4.66304 29.2815 4.39755 28.7096H20.8419C21.4442 31.1048 23.6154 32.8845 26.1931 32.8845C29.2388 32.8845 31.7146 30.4044 31.7146 27.3584C31.7146 24.3102 29.2381 21.8324 26.1931 21.8324C23.6154 21.8324 21.4442 23.6099 20.8419 26.0073H0.595825C0.820073 26.9343 1.11107 27.8373 1.45607 28.7103C1.68032 29.2778 1.93007 29.8332 2.20006 30.3737C5.64629 37.2621 12.7675 42 20.9732 42C32.5418 42 41.955 32.5797 41.955 21.0007C41.955 19.8628 41.8635 18.7436 41.6887 17.6567ZM26.1939 24.5346C27.7501 24.5346 29.0146 25.8009 29.0146 27.3584C29.0146 28.9137 27.7494 30.1823 26.1939 30.1823C24.6399 30.1823 23.3746 28.9137 23.3746 27.3584C23.3746 25.8002 24.6399 24.5346 26.1939 24.5346Z" fill="url(#paint0_linear_0_389)"/>
<path d="M41.6887 17.6567H38.9468H36.0046C36.0046 17.6567 39.231 18.3616 39.2498 21.355C39.06 31.2797 30.9361 39.2962 20.9732 39.2962C14.3132 39.2962 8.47526 35.7135 5.28029 30.3729C4.95854 29.8362 4.66304 29.2815 4.39755 28.7096H20.8419C21.4442 31.1048 23.6154 32.8845 26.1931 32.8845C29.2388 32.8845 31.7146 30.4044 31.7146 27.3584C31.7146 24.3102 29.2381 21.8324 26.1931 21.8324C23.6154 21.8324 21.4442 23.6099 20.8419 26.0073H0.595825C0.820073 26.9343 1.11107 27.8373 1.45607 28.7103C1.68032 29.2778 1.93007 29.8332 2.20006 30.3737C5.64629 37.2621 12.7675 42 20.9732 42C32.5418 42 41.955 32.5797 41.955 21.0007C41.955 19.8628 41.8635 18.7436 41.6887 17.6567ZM26.1939 24.5346C27.7501 24.5346 29.0146 25.8009 29.0146 27.3584C29.0146 28.9137 27.7494 30.1823 26.1939 30.1823C24.6399 30.1823 23.3746 28.9137 23.3746 27.3584C23.3746 25.8002 24.6399 24.5346 26.1939 24.5346Z" fill="url(#paint1_linear_0_389)"/>
<path d="M5.94191 24.3432C5.94191 24.3432 2.71468 23.6384 2.69669 20.6442C2.88718 10.7203 11.0126 2.70372 20.9733 2.70372C27.6332 2.70372 33.4727 6.2864 36.6662 11.627C36.9879 12.1637 37.2834 12.7184 37.5489 13.2904H21.106C20.5038 10.8952 18.3303 9.11547 15.7526 9.11547C12.7069 9.11547 10.2311 11.5955 10.2311 14.6415C10.2311 17.6898 12.7076 20.1675 15.7526 20.1675C18.3303 20.1675 20.5038 18.3901 21.106 15.9926H41.3506C41.1264 15.0656 40.8354 14.1634 40.4904 13.2896C40.2661 12.7222 40.0164 12.1667 39.7464 11.6263C36.3002 4.73789 29.179 0 20.9733 0C9.40463 0 -0.00854492 9.42022 -0.00854492 20.9992C-0.00854492 22.1364 0.0829535 23.2548 0.257702 24.3425H2.99968H5.94191V24.3432ZM15.7526 17.4653C14.1963 17.4653 12.9311 16.199 12.9311 14.6415C12.9311 13.084 14.1963 11.8184 15.7526 11.8184C17.3066 11.8184 18.5741 13.0847 18.5741 14.6415C18.5741 16.199 17.3066 17.4653 15.7526 17.4653Z" fill="url(#paint2_linear_0_389)"/>
<defs>
<linearGradient id="paint0_linear_0_389" x1="8.04465" y1="38.5731" x2="41.6127" y2="13.813" gradientUnits="userSpaceOnUse">
<stop stop-color="#0059D4"/>
<stop offset="0.2588" stop-color="#0370DD"/>
<stop offset="0.7995" stop-color="#0AABF5"/>
<stop offset="1" stop-color="#0DC3FF"/>
</linearGradient>
<linearGradient id="paint1_linear_0_389" x1="8.04465" y1="38.5731" x2="41.6127" y2="13.813" gradientUnits="userSpaceOnUse">
<stop stop-color="#0059D4"/>
<stop offset="0.2588" stop-color="#0370DD"/>
<stop offset="0.7995" stop-color="#0AABF5"/>
<stop offset="1" stop-color="#0DC3FF"/>
</linearGradient>
<linearGradient id="paint2_linear_0_389" x1="0.385607" y1="28.1893" x2="33.9536" y2="3.42922" gradientUnits="userSpaceOnUse">
<stop stop-color="#0059D4"/>
<stop offset="0.2588" stop-color="#0370DD"/>
<stop offset="0.7995" stop-color="#0AABF5"/>
<stop offset="1" stop-color="#0DC3FF"/>
</linearGradient>
</defs>
</svg>
